<svg width="340" height="494" viewBox="0 0 340 494" fill="none" xmlns="http://www.w3.org/2000/svg">
<path fill-rule="evenodd" clip-rule="evenodd" d="M183.043 237.769C181.724 243.52 180.032 249.162 179.203 255C178.713 259.401 178.684 263.84 179.117 268.246C179.566 274.692 183.503 278.732 189.052 281.566C199.602 286.786 209.017 294.039 216.757 302.909C222.839 310.035 225.677 318.662 227.563 327.637C231.355 345.75 229.481 363.431 223.136 380.708C221.545 385.075 218.603 387.944 213.754 388.247C210.617 388.45 209.38 386.667 210.537 383.801C214.591 373.73 216.203 363.141 216.887 352.411C217.293 343.667 216.453 334.909 214.391 326.402C211.398 312.83 203.976 302.375 192.759 294.457C187.87 291.008 182.936 287.611 177.891 284.388C173.507 281.597 171.298 277.608 170.259 272.648C168.469 263.963 169.512 255.528 171.68 247.033C177.398 224.644 183.27 202.315 192.739 181.111C195.26 175.484 197.536 169.66 197.464 163.289C197.387 159.194 196.123 155.21 193.826 151.819C192.881 150.369 191.69 150 190.372 150.999C186.543 153.896 182.093 156.288 179.131 159.899C171.73 168.954 164.716 178.381 158.096 188.033C153.022 195.444 148.566 203.295 144.213 211.159C136.973 224.21 130.621 237.728 126.412 252.061C123.607 261.7 122.647 271.782 123.583 281.778C123.73 283.504 124.653 285.928 122.013 286.626C119.122 287.402 118.54 284.85 117.879 282.963C114.458 273.24 115.165 263.31 117.511 253.603C121.027 239.032 126.997 225.296 134.124 212.167C139.906 201.475 146.149 190.953 152.945 180.872C158.304 173.081 164.239 165.703 170.699 158.799C175.408 153.692 180.981 149.223 187.96 147.223C188.905 146.901 189.869 146.634 190.846 146.426C199.035 145.089 201.958 146.932 205.179 154.938C208.109 162.126 206.119 169.101 203.678 175.903C199.538 187.445 195.152 198.911 190.977 210.448C189.9 213.545 188.999 216.7 188.277 219.899C188.334 220.732 188.6 221.538 189.053 222.24C190.174 225.091 191.601 227.865 192.44 230.8C194.425 237.696 195.98 244.714 197.986 251.606C199.343 256.311 197.031 259.496 194.129 262.523C193.108 263.234 191.847 263.513 190.622 263.3C190.138 263.245 189.468 261.734 189.469 260.885C189.32 253.779 187.831 246.765 185.082 240.212C184.757 239.388 184.329 238.606 183.942 237.805L183.043 237.769Z" fill="#011627"/>
<path fill-rule="evenodd" clip-rule="evenodd" d="M57.3548 298.455C60.5122 319.218 70.8143 336.341 84.1016 352.054C97.0827 367.415 113.191 378.858 129.791 389.728C141.344 397.309 152.974 404.766 164.749 411.987C170.943 415.774 177.551 418.858 183.899 422.396C197.891 430.176 211.899 437.986 223.381 449.383C226.336 452.471 228.928 455.887 231.106 459.564C232.207 461.327 234.066 463.748 231.545 465.956C229.473 467.786 225.398 467.618 223.183 465.726C221.914 464.694 220.767 463.522 219.763 462.231C214.027 454.683 206.948 448.259 198.882 443.282C187.597 436.149 175.998 429.535 164.628 422.538C155.491 416.924 146.49 411.087 137.454 405.3C127.487 398.931 117.385 392.797 107.71 386.034C89.9626 373.63 73.8665 359.45 61.6118 341.279C50.9349 325.436 45.7315 307.986 44.7675 289.054C44.1771 277.519 44.6698 265.954 46.239 254.511C47.687 243.863 52.0035 234.087 55.6508 224.144C65.8548 196.148 81.4634 171.288 99.5452 147.855C106.893 138.325 114.847 129.346 124.406 121.929C128.638 118.513 133.999 116.813 139.425 117.164C143.951 117.449 147.252 121.262 146.702 125.353C146.633 125.883 146.167 126.354 145.87 126.848C145.373 126.568 144.891 126.261 144.426 125.929C144.266 125.707 144.14 125.463 144.052 125.203C140.671 118.692 136.064 117.286 130.342 121.97C125.417 126.133 120.874 130.729 116.767 135.702C103.121 151.663 91.6633 169.125 81.2963 187.316C73.76 200.497 68.2472 214.448 63.0806 228.667C58.0574 242.244 55.3306 256.565 55.012 271.04C54.8556 280.175 56.0368 289.333 56.6651 298.48L57.3548 298.455Z" fill="#011627"/>
<path fill-rule="evenodd" clip-rule="evenodd" d="M203.229 128.169C201.232 131.33 199.434 134.367 197.435 137.209C196.683 138.057 195.82 138.799 194.869 139.415C194.548 138.249 193.704 136.935 193.976 135.938C196.732 126.002 202.378 122.424 211.499 124.965C217.438 126.604 221.488 131.451 223.095 137.478C224.899 144.043 226.228 150.73 227.075 157.486C228.788 172.027 229.926 186.617 231.456 201.181C231.998 206.253 232.948 211.385 236.155 215.535C238.035 218.171 240.406 220.42 243.138 222.156C256.189 229.61 267.03 239.227 274.498 252.441C284.553 270.205 286.518 288.946 281.33 308.538C278.705 318.406 275.546 328.061 270.476 336.96C269.806 338.128 269.038 339.248 268.185 340.626C272.382 344.212 276.724 347.628 280.756 351.397C286.937 357.182 292.821 363.274 298.946 369.058C303.761 373.623 308.795 377.939 313.74 382.37C314.346 382.922 314.953 383.474 315.54 384.041C318.3 386.75 317.883 388.468 314.225 389.57C312.614 390.086 310.897 390.178 309.24 389.839C307.582 389.499 306.04 388.739 304.761 387.632C288.881 375.008 274.273 360.861 261.145 345.394C260.841 345.052 260.595 344.666 260.331 344.306C258.561 342.013 258.125 340.085 259.544 336.962C262.444 330.628 264.38 323.839 266.528 317.189C269.371 308.527 271.798 299.698 271.635 290.566C271.19 268.651 263.076 250.217 245.952 236.146C241.916 232.764 237.609 229.719 233.077 227.039C225.689 222.752 221.098 216.371 220.043 208.216C218.26 194.448 217.358 180.554 216.157 166.713C215.341 157.379 214.686 148.027 211.888 139.007C210.466 134.49 207.694 131.044 203.229 128.169Z" fill="#011627"/>
<path fill-rule="evenodd" clip-rule="evenodd" d="M186.022 132.723C185.951 136.539 186.084 140.264 185.712 143.936C185.606 144.678 185.339 145.387 184.928 146.014C184.518 146.641 183.975 147.169 183.337 147.563C179.626 149.226 177.126 149.115 177.036 143.189C177.043 138.753 176.539 134.33 175.536 130.009C174.737 126.989 172.599 124.245 170.776 121.597C169.731 120.088 168.097 119.766 166.198 120.661C161.692 122.936 157.94 126.467 155.395 130.827C148.914 141.127 142.756 151.633 136.734 162.214C122.792 186.784 112.772 212.994 103.083 239.386C99.7109 248.595 95.8442 257.629 92.3325 266.797C91.2128 269.784 90.2927 272.841 89.5784 275.95C89.4791 276.675 89.0991 277.332 88.5201 277.779C87.9412 278.226 87.2098 278.427 86.4836 278.339C84.5795 278.353 84.1125 276.805 84.3068 275.502C85.1669 269.956 85.5789 264.247 87.366 258.952C92.8333 242.859 98.5547 226.831 104.776 211.01C109.73 198.417 115.004 185.888 121.142 173.874C128.155 160.115 135.938 146.713 144.031 133.564C149.192 125.167 156.124 118.336 166.418 116.023C172.985 114.55 178.195 116.365 181.499 122.272C183.182 125.677 184.691 129.165 186.022 132.723V132.723Z" fill="#011627"/>
<path fill-rule="evenodd" clip-rule="evenodd" d="M195.196 94.3948C190.544 94.7506 188.898 93.692 189.068 89.3283C189.185 84.6097 189.745 79.9127 190.742 75.2993C193.033 65.2273 195.525 55.174 198.436 45.2434C200.085 39.6093 202.698 34.2528 204.977 28.8134C205.32 27.7576 206.017 26.8528 206.95 26.2518C208.678 25.4189 210.593 25.0464 212.507 25.1703C213.313 25.3003 214.339 27.8051 214.216 29.1392C213.829 33.8482 213.162 38.53 212.221 43.16C210.061 53.6495 207.916 64.1583 205.273 74.5365C203.688 80.2215 201.675 85.7783 199.251 91.1593C198.686 92.6065 196.617 93.3552 195.196 94.3948Z" fill="#011627"/>
<path fill-rule="evenodd" clip-rule="evenodd" d="M153.582 60.9131C153.663 63.4342 153.787 67.4139 153.879 71.3994C153.972 72.456 153.643 73.5064 152.964 74.3211C152.285 75.1358 151.312 75.6486 150.256 75.7475C147.93 76.168 146.141 75.8409 144.69 73.5453C141.26 68.1674 140.21 62.0508 138.913 56.0339C137.442 49.2987 136.194 42.5123 135.033 35.7212C134.604 32.9331 134.408 30.1142 134.446 27.2937C134.434 23.8119 135.603 22.2887 138.171 21.8026C140.739 21.3164 142.561 22.3762 143.603 25.6388C146.192 33.8697 148.594 42.1566 151.008 50.4523C151.842 53.4216 152.477 56.449 153.582 60.9131Z" fill="#011627"/>
<path fill-rule="evenodd" clip-rule="evenodd" d="M265.093 63.1962C265.445 63.0979 265.811 63.0616 266.176 63.0887C267.596 63.4494 269.016 63.8653 270.421 64.2619C269.891 65.5373 269.698 67.1489 268.782 67.9979C263.869 72.561 258.849 77.0036 253.723 81.3257C247.835 86.3075 241.853 91.1776 235.777 95.936C232.833 98.2432 229.626 100.256 225.655 100.114C224.629 99.9264 223.632 99.6022 222.692 99.1497C222.955 98.1405 223.381 97.1809 223.953 96.3089C228.203 91.8363 232.354 87.2384 236.921 83.1165C242.923 77.7098 249.128 72.546 255.534 67.6249C258.272 65.5203 261.722 64.3015 264.869 62.7515C264.948 62.8806 264.979 63.0515 265.093 63.1962Z" fill="#011627"/>
</svg>
