<svg width="40" height="41" viewBox="0 0 40 41" fill="none" xmlns="http://www.w3.org/2000/svg">
<path d="M17.1059 34.2118C20.9012 34.211 24.5872 32.9405 27.5768 30.6024L36.9765 40.0021L40 36.9787L30.6003 27.579C32.9395 24.589 34.2109 20.9022 34.2118 17.1059C34.2118 7.67413 26.5377 0 17.1059 0C7.67413 0 0 7.67413 0 17.1059C0 26.5377 7.67413 34.2118 17.1059 34.2118ZM17.1059 4.27647C24.1813 4.27647 29.9353 10.0305 29.9353 17.1059C29.9353 24.1813 24.1813 29.9353 17.1059 29.9353C10.0305 29.9353 4.27647 24.1813 4.27647 17.1059C4.27647 10.0305 10.0305 4.27647 17.1059 4.27647Z" fill="black"/>
</svg>
